<svg xmlns="http://www.w3.org/2000/svg" viewBox="0 0 32 32" fill="none">
  <path d="M16 8C13.8 8 12 9.8 12 12C12 14.2 13.8 16 16 16C18.2 16 20 14.2 20 12C20 9.8 18.2 8 16 8Z" stroke="currentColor" stroke-width="1.5" stroke-linecap="round" stroke-linejoin="round"/>
  <path d="M9 16C6.8 16 5 17.8 5 20C5 22.2 6.8 24 9 24C11.2 24 13 22.2 13 20C13 17.8 11.2 16 9 16Z" stroke="currentColor" stroke-width="1.5" stroke-linecap="round" stroke-linejoin="round"/>
  <path d="M23 16C20.8 16 19 17.8 19 20C19 22.2 20.8 24 23 24C25.2 24 27 22.2 27 20C27 17.8 25.2 16 23 16Z" stroke="currentColor" stroke-width="1.5" stroke-linecap="round" stroke-linejoin="round"/>
  <path d="M16 16V28" stroke="currentColor" stroke-width="1.5" stroke-linecap="round" stroke-linejoin="round"/>
  <path d="M19 20C19 17.8 17.2 16 15 16" stroke="currentColor" stroke-width="1.5" stroke-linecap="round" stroke-linejoin="round"/>
  <path d="M13 20C13 17.8 14.8 16 17 16" stroke="currentColor" stroke-width="1.5" stroke-linecap="round" stroke-linejoin="round"/>
  <path d="M12 12C12 9.8 13.8 8 16 8C18.2 8 20 6.2 20 4" stroke="currentColor" stroke-width="1.5" stroke-linecap="round" stroke-linejoin="round"/>
  <path d="M16 16V28" stroke="currentColor" stroke-width="1.5" stroke-linecap="round" stroke-linejoin="round"/>
  <path d="M13 20C13 22.2 11.2 24 9 24C6.8 24 5 25.8 5 28" stroke="currentColor" stroke-width="1.5" stroke-linecap="round" stroke-linejoin="round"/>
  <path d="M19 20C19 22.2 20.8 24 23 24C25.2 24 27 25.8 27 28" stroke="currentColor" stroke-width="1.5" stroke-linecap="round" stroke-linejoin="round"/>
</svg>